<svg width="27" height="25" viewBox="0 0 27 25" fill="none" xmlns="http://www.w3.org/2000/svg">
<path d="M7.82413 24.4742C7.46434 24.4742 7.16275 24.3525 6.91936 24.1091C6.67598 23.8657 6.55428 23.5641 6.55428 23.2043V21.9345H0.205078V19.3948H7.82413V13.0456H0.205078V10.5059H6.80825L5.47492 6.69637H0.205078V4.15669H5.91936C6.32148 4.15669 6.68656 4.27309 7.0146 4.5059C7.34264 4.7387 7.57016 5.04558 7.69714 5.42653L10.3638 13.0456V23.2043C10.3638 23.5641 10.2421 23.8657 9.99873 24.1091C9.75534 24.3525 9.45375 24.4742 9.09397 24.4742H7.82413ZM4.64952 18.1249C5.17862 18.1249 5.62836 17.9398 5.99873 17.5694C6.3691 17.199 6.55428 16.7493 6.55428 16.2202C6.55428 15.6911 6.3691 15.2413 5.99873 14.871C5.62836 14.5006 5.17862 14.3154 4.64952 14.3154C4.12042 14.3154 3.67069 14.5006 3.30032 14.871C2.92995 15.2413 2.74476 15.6911 2.74476 16.2202C2.74476 16.7493 2.92995 17.199 3.30032 17.5694C3.67069 17.9398 4.12042 18.1249 4.64952 18.1249ZM16.1416 13.0456H22.3638L23.5067 8.34717C23.549 8.17786 23.586 8.00325 23.6178 7.82336C23.6495 7.64346 23.6654 7.46886 23.6654 7.29955C23.6654 6.11436 23.2421 5.08262 22.3956 4.20431C21.549 3.326 20.5014 2.88685 19.2527 2.88685C18.004 2.88685 16.9564 3.32071 16.1098 4.18844C15.2633 5.05616 14.84 6.08262 14.84 7.2678C14.84 7.43711 14.8559 7.61701 14.8876 7.80749C14.9194 7.99796 14.9564 8.17786 14.9987 8.34717L16.1416 13.0456ZM16.3956 7.33129H18.3003C18.3003 7.07733 18.3956 6.8551 18.586 6.66463C18.7765 6.47415 18.9987 6.37891 19.2527 6.37891C19.5067 6.37891 19.7289 6.47415 19.9194 6.66463C20.1098 6.8551 20.2051 7.07733 20.2051 7.33129H22.1098C22.1098 6.52706 21.8347 5.84981 21.2844 5.29955C20.7342 4.74928 20.0569 4.47415 19.2527 4.47415C18.4485 4.47415 17.7712 4.74928 17.221 5.29955C16.6707 5.84981 16.3956 6.52706 16.3956 7.33129ZM16.713 11.1408H21.7924V9.23606H16.713V11.1408ZM17.9829 24.4742V15.5853H14.1733L12.5225 8.98209C12.459 8.68579 12.4061 8.40008 12.3638 8.12495C12.3215 7.84981 12.3003 7.5641 12.3003 7.2678C12.3003 5.40537 12.9617 3.78632 14.2844 2.41066C15.6072 1.035 17.2633 0.347168 19.2527 0.347168C21.2421 0.347168 22.8982 1.035 24.2209 2.41066C25.5437 3.78632 26.2051 5.40537 26.2051 7.2678C26.2051 7.5641 26.1839 7.84981 26.1416 8.12495C26.0993 8.40008 26.0463 8.68579 25.9829 8.98209L24.3321 15.5853H20.5225V24.4742H17.9829Z" fill="#2356CF"/>
</svg>
