<svg width="23" height="27" viewBox="0 0 23 27" fill="none" xmlns="http://www.w3.org/2000/svg">
<path d="M2.94192 26.4106C2.5542 26.4106 2.2292 26.2795 1.96692 26.0172C1.70464 25.7549 1.5735 25.4299 1.5735 25.0422V22.237C1.16297 21.7808 0.832271 21.2734 0.581394 20.7146C0.330517 20.1558 0.205078 19.5457 0.205078 18.8843V5.88433C0.205078 3.99135 1.08315 2.60582 2.83929 1.72775C4.59543 0.84968 7.36648 0.410645 11.1524 0.410645C15.0753 0.410645 17.8805 0.832574 19.5682 1.67643C21.256 2.52029 22.0998 3.92293 22.0998 5.88433V18.8843C22.0998 19.5457 21.9744 20.1558 21.7235 20.7146C21.4726 21.2734 21.1419 21.7808 20.7314 22.237V25.0422C20.7314 25.4299 20.6003 25.7549 20.338 26.0172C20.0757 26.2795 19.7507 26.4106 19.363 26.4106H17.9946C17.6068 26.4106 17.2818 26.2795 17.0196 26.0172C16.7573 25.7549 16.6261 25.4299 16.6261 25.0422V23.6738H5.67876V25.0422C5.67876 25.4299 5.54762 25.7549 5.28534 26.0172C5.02306 26.2795 4.69806 26.4106 4.31034 26.4106H2.94192ZM11.2209 4.51591H18.884H3.55771H11.2209ZM16.6261 14.0949H2.94192H19.363H16.6261ZM2.94192 11.358H19.363V7.25275H2.94192V11.358ZM6.36297 19.5685C6.93315 19.5685 7.4178 19.369 7.81692 18.9699C8.21604 18.5707 8.4156 18.0861 8.4156 17.5159C8.4156 16.9457 8.21604 16.4611 7.81692 16.062C7.4178 15.6628 6.93315 15.4633 6.36297 15.4633C5.7928 15.4633 5.30815 15.6628 4.90903 16.062C4.5099 16.4611 4.31034 16.9457 4.31034 17.5159C4.31034 18.0861 4.5099 18.5707 4.90903 18.9699C5.30815 19.369 5.7928 19.5685 6.36297 19.5685ZM15.9419 19.5685C16.5121 19.5685 16.9967 19.369 17.3959 18.9699C17.795 18.5707 17.9946 18.0861 17.9946 17.5159C17.9946 16.9457 17.795 16.4611 17.3959 16.062C16.9967 15.6628 16.5121 15.4633 15.9419 15.4633C15.3717 15.4633 14.8871 15.6628 14.488 16.062C14.0889 16.4611 13.8893 16.9457 13.8893 17.5159C13.8893 18.0861 14.0889 18.5707 14.488 18.9699C14.8871 19.369 15.3717 19.5685 15.9419 19.5685ZM3.55771 4.51591H18.884C18.5419 4.12819 17.8064 3.80319 16.6774 3.54091C15.5485 3.27863 13.7296 3.14749 11.2209 3.14749C8.78052 3.14749 6.99587 3.29003 5.86692 3.57512C4.73797 3.86021 3.96824 4.1738 3.55771 4.51591ZM5.67876 20.937H16.6261C17.3788 20.937 18.0231 20.669 18.559 20.133C19.095 19.597 19.363 18.9527 19.363 18.2001V14.0949H2.94192V18.2001C2.94192 18.9527 3.2099 19.597 3.74587 20.133C4.28183 20.669 4.92613 20.937 5.67876 20.937Z" fill="#2356CF"/>
</svg>
