<svg width="27" height="21" viewBox="0 0 27 21" fill="none" xmlns="http://www.w3.org/2000/svg">
<path d="M15.8051 18.2107C17.9717 18.2107 19.8134 17.4524 21.3301 15.9357C22.8467 14.4191 23.6051 12.5774 23.6051 10.4107C23.6051 8.22241 22.8088 6.37533 21.2163 4.86949C19.6238 3.36366 17.7117 2.61074 15.4801 2.61074C14.4401 2.61074 13.4326 2.72991 12.4576 2.96824C11.4826 3.20658 10.5401 3.56408 9.63008 4.04074L12.8801 5.34074C13.7684 5.70908 14.478 6.27783 15.0088 7.04699C15.5397 7.81616 15.8051 8.67741 15.8051 9.63074C15.8051 10.9307 15.3555 12.0357 14.4563 12.9457C13.5572 13.8557 12.4684 14.3107 11.1901 14.3107H2.87008C2.82674 14.8307 2.80508 15.4212 2.80508 16.082V18.2107H15.8051ZM3.32508 11.7107H11.1251C11.7101 11.7107 12.203 11.5103 12.6038 11.1095C13.0047 10.7087 13.2051 10.2157 13.2051 9.63074C13.2051 9.21908 13.0913 8.84533 12.8638 8.50949C12.6363 8.17366 12.3167 7.91908 11.9051 7.74574L7.09508 5.79574C6.18508 6.59741 5.41049 7.50741 4.77133 8.52574C4.13216 9.54408 3.65008 10.6057 3.32508 11.7107ZM15.8051 20.8107H2.80508C2.09008 20.8107 1.47799 20.5562 0.968828 20.047C0.459661 19.5378 0.205078 18.9257 0.205078 18.2107V15.2857C0.205078 13.1624 0.605911 11.1745 1.40758 9.32199C2.20924 7.46949 3.29799 5.85533 4.67383 4.47949C6.04966 3.10366 7.66924 2.01491 9.53258 1.21324C11.3959 0.411576 13.3784 0.0107422 15.4801 0.0107422C16.9534 0.0107422 18.3401 0.281576 19.6401 0.823242C20.9401 1.36491 22.0776 2.10699 23.0526 3.04949C24.0276 3.99199 24.7967 5.09158 25.3601 6.34824C25.9234 7.60491 26.2051 8.95908 26.2051 10.4107C26.2051 11.8407 25.9342 13.1895 25.3926 14.457C24.8509 15.7245 24.1088 16.8295 23.1663 17.772C22.2238 18.7145 21.1188 19.4566 19.8513 19.9982C18.5838 20.5399 17.2351 20.8107 15.8051 20.8107Z" fill="#2356CF"/>
</svg>
