<svg width="27" height="27" viewBox="0 0 27 27" fill="none" xmlns="http://www.w3.org/2000/svg">
<path d="M23.8611 26.4106L15.9637 18.5133L18.9929 15.4842L26.8902 23.3815L23.8611 26.4106ZM3.95543 26.4106L0.926299 23.3815L10.8791 13.4287L8.42699 10.9765L7.41728 11.9862L5.57817 10.1471V13.1041L4.56846 14.1138L0.205078 9.75045L1.21479 8.74074H4.17179L2.36874 6.93769L7.48941 1.81702C7.97022 1.33621 8.48709 0.987621 9.04003 0.771255C9.59297 0.554889 10.1579 0.446706 10.7349 0.446706C11.3119 0.446706 11.8768 0.554889 12.4298 0.771255C12.9827 0.987621 13.4996 1.33621 13.9804 1.81702L10.6628 5.13464L12.4658 6.93769L11.4561 7.9474L13.9083 10.3995L17.1538 7.15406C17.0576 6.88961 16.9795 6.61314 16.9194 6.32465C16.8593 6.03616 16.8292 5.74768 16.8292 5.45919C16.8292 4.04079 17.316 2.84476 18.2897 1.87112C19.2633 0.897468 20.4594 0.410645 21.8778 0.410645C22.2384 0.410645 22.5809 0.446706 22.9055 0.518828C23.23 0.59095 23.5606 0.699133 23.8972 0.843377L20.3271 4.41342L22.9235 7.00981L26.4936 3.43977C26.6619 3.77634 26.776 4.1069 26.8361 4.43145C26.8963 4.756 26.9263 5.09858 26.9263 5.45919C26.9263 6.87759 26.4395 8.07361 25.4658 9.04726C24.4922 10.0209 23.2962 10.5077 21.8778 10.5077C21.5893 10.5077 21.3008 10.4837 21.0123 10.4356C20.7238 10.3875 20.4473 10.3034 20.1829 10.1832L3.95543 26.4106Z" fill="#2356CF"/>
</svg>
