<svg width="58" height="58" viewBox="0 0 58 58" fill="none" xmlns="http://www.w3.org/2000/svg">
<circle cx="28.9448" cy="29.1572" r="28.3628" fill="#D0E4E5"/>
<path d="M28.9453 39.5874C31.763 39.5874 34.5382 39.9179 37.2705 40.5796C40.0031 41.2414 42.6936 42.2345 45.3408 43.5581C46.5789 44.1986 47.5712 45.1275 48.3184 46.3442C48.8098 47.1446 49.1384 47.9959 49.3066 48.8979C44.1516 54.2141 36.9353 57.5199 28.9453 57.52C20.9549 57.52 13.7372 54.2145 8.58203 48.8979C8.75022 47.9959 9.07978 47.1447 9.57129 46.3442C10.3184 45.1275 11.3107 44.1986 12.5488 43.5581C15.1961 42.2345 17.8865 41.2414 20.6191 40.5796C23.3517 39.9178 26.1274 39.5874 28.9453 39.5874ZM28.9453 16.5308C31.7629 16.5309 34.1751 17.5341 36.1816 19.5405C38.1883 21.5472 39.1923 23.9599 39.1924 26.7778C39.1924 29.5958 38.1884 32.0084 36.1816 34.0151C34.175 36.0217 31.7631 37.0258 28.9453 37.0259C26.1274 37.0259 23.7148 36.0218 21.708 34.0151C19.7012 32.0084 18.6973 29.5958 18.6973 26.7778C18.6973 23.9599 19.7013 21.5472 21.708 19.5405C23.7147 17.534 26.1275 16.5308 28.9453 16.5308Z" fill="#2356CF"/>
</svg>
