<svg width="27" height="27" viewBox="0 0 27 27" fill="none" xmlns="http://www.w3.org/2000/svg">
<path d="M8.87175 26.4106C7.28286 26.4106 5.92267 25.8449 4.79119 24.7134C3.65971 23.5819 3.09397 22.2218 3.09397 20.6329V8.82453C2.25137 8.51157 1.55924 7.98796 1.01758 7.2537C0.475911 6.51944 0.205078 5.68287 0.205078 4.74398C0.205078 3.54027 0.626374 2.51713 1.46897 1.67453C2.31156 0.831941 3.33471 0.410645 4.53841 0.410645C5.74212 0.410645 6.76526 0.831941 7.60786 1.67453C8.45045 2.51713 8.87175 3.54027 8.87175 4.74398C8.87175 5.68287 8.60091 6.51944 8.05925 7.2537C7.51758 7.98796 6.82545 8.51157 5.98286 8.82453V20.6329C5.98286 21.4273 6.26573 22.1074 6.83147 22.6731C7.39721 23.2389 8.0773 23.5218 8.87175 23.5218C9.66619 23.5218 10.3463 23.2389 10.912 22.6731C11.4778 22.1074 11.7606 21.4273 11.7606 20.6329V6.18842C11.7606 4.59953 12.3264 3.23935 13.4579 2.10787C14.5893 0.976385 15.9495 0.410645 17.5384 0.410645C19.1273 0.410645 20.4875 0.976385 21.619 2.10787C22.7505 3.23935 23.3162 4.59953 23.3162 6.18842V17.9968C24.1588 18.3097 24.8509 18.8333 25.3926 19.5676C25.9342 20.3018 26.2051 21.1384 26.2051 22.0773C26.2051 23.281 25.7838 24.3042 24.9412 25.1468C24.0986 25.9893 23.0754 26.4106 21.8717 26.4106C20.668 26.4106 19.6449 25.9893 18.8023 25.1468C17.9597 24.3042 17.5384 23.281 17.5384 22.0773C17.5384 21.1384 17.8092 20.2958 18.3509 19.5495C18.8926 18.8032 19.5847 18.2856 20.4273 17.9968V6.18842C20.4273 5.39398 20.1444 4.71389 19.5787 4.14814C19.0129 3.5824 18.3329 3.29953 17.5384 3.29953C16.744 3.29953 16.0639 3.5824 15.4981 4.14814C14.9324 4.71389 14.6495 5.39398 14.6495 6.18842V20.6329C14.6495 22.2218 14.0838 23.5819 12.9523 24.7134C11.8208 25.8449 10.4606 26.4106 8.87175 26.4106ZM4.53841 6.18842C4.94767 6.18842 5.29073 6.05 5.56758 5.77314C5.84443 5.49629 5.98286 5.15324 5.98286 4.74398C5.98286 4.33472 5.84443 3.99166 5.56758 3.71481C5.29073 3.43796 4.94767 3.29953 4.53841 3.29953C4.12915 3.29953 3.7861 3.43796 3.50924 3.71481C3.23239 3.99166 3.09397 4.33472 3.09397 4.74398C3.09397 5.15324 3.23239 5.49629 3.50924 5.77314C3.7861 6.05 4.12915 6.18842 4.53841 6.18842ZM21.8717 23.5218C22.281 23.5218 22.6241 23.3833 22.9009 23.1065C23.1778 22.8296 23.3162 22.4866 23.3162 22.0773C23.3162 21.6681 23.1778 21.325 22.9009 21.0481C22.6241 20.7713 22.281 20.6329 21.8717 20.6329C21.4625 20.6329 21.1194 20.7713 20.8426 21.0481C20.5657 21.325 20.4273 21.6681 20.4273 22.0773C20.4273 22.4866 20.5657 22.8296 20.8426 23.1065C21.1194 23.3833 21.4625 23.5218 21.8717 23.5218Z" fill="#2356CF"/>
</svg>
