<svg width="27" height="27" viewBox="0 0 27 27" fill="none" xmlns="http://www.w3.org/2000/svg">
<path d="M9.69508 26.6685L9.17508 22.5085C8.89341 22.4001 8.628 22.2701 8.37883 22.1185C8.12966 21.9668 7.88591 21.8043 7.64758 21.631L3.78008 23.256L0.205078 17.081L3.55258 14.546C3.53091 14.3943 3.52008 14.248 3.52008 14.1072V13.2297C3.52008 13.0889 3.53091 12.9426 3.55258 12.791L0.205078 10.256L3.78008 4.08096L7.64758 5.70596C7.88591 5.53262 8.13508 5.37012 8.39508 5.21846C8.65508 5.06679 8.91508 4.93679 9.17508 4.82846L9.69508 0.668457H16.8451L17.3651 4.82846C17.6467 4.93679 17.9122 5.06679 18.1613 5.21846C18.4105 5.37012 18.6542 5.53262 18.8926 5.70596L22.7601 4.08096L26.3351 10.256L22.9876 12.791C23.0092 12.9426 23.0201 13.0889 23.0201 13.2297V14.1072C23.0201 14.248 22.9984 14.3943 22.9551 14.546L26.3026 17.081L22.7276 23.256L18.8926 21.631C18.6542 21.8043 18.4051 21.9668 18.1451 22.1185C17.8851 22.2701 17.6251 22.4001 17.3651 22.5085L16.8451 26.6685H9.69508ZM11.9701 24.0685H14.5376L14.9926 20.6235C15.6642 20.4501 16.2872 20.1955 16.8613 19.8597C17.4355 19.5239 17.9609 19.1176 18.4376 18.641L21.6551 19.9735L22.9226 17.7635L20.1276 15.651C20.2359 15.3476 20.3117 15.028 20.3551 14.6922C20.3984 14.3564 20.4201 14.0151 20.4201 13.6685C20.4201 13.3218 20.3984 12.9805 20.3551 12.6447C20.3117 12.3089 20.2359 11.9893 20.1276 11.686L22.9226 9.57346L21.6551 7.36346L18.4376 8.72846C17.9609 8.23012 17.4355 7.81304 16.8613 7.47721C16.2872 7.14137 15.6642 6.88679 14.9926 6.71346L14.5701 3.26846H12.0026L11.5476 6.71346C10.8759 6.88679 10.253 7.14137 9.67883 7.47721C9.10466 7.81304 8.57925 8.21929 8.10258 8.69596L4.88508 7.36346L3.61758 9.57346L6.41258 11.6535C6.30425 11.9785 6.22841 12.3035 6.18508 12.6285C6.14175 12.9535 6.12008 13.3001 6.12008 13.6685C6.12008 14.0151 6.14175 14.351 6.18508 14.676C6.22841 15.001 6.30425 15.326 6.41258 15.651L3.61758 17.7635L4.88508 19.9735L8.10258 18.6085C8.57925 19.1068 9.10466 19.5239 9.67883 19.8597C10.253 20.1955 10.8759 20.4501 11.5476 20.6235L11.9701 24.0685ZM13.3351 18.2185C14.5917 18.2185 15.6642 17.7743 16.5526 16.886C17.4409 15.9976 17.8851 14.9251 17.8851 13.6685C17.8851 12.4118 17.4409 11.3393 16.5526 10.451C15.6642 9.56262 14.5917 9.11846 13.3351 9.11846C12.0567 9.11846 10.9788 9.56262 10.1013 10.451C9.22383 11.3393 8.78508 12.4118 8.78508 13.6685C8.78508 14.9251 9.22383 15.9976 10.1013 16.886C10.9788 17.7743 12.0567 18.2185 13.3351 18.2185Z" fill="#2356CF"/>
</svg>
